<svg width="269" height="226" viewBox="0 0 269 226" fill="none" xmlns="http://www.w3.org/2000/svg">
<path d="M257.506 211.256C256.616 219.726 230.716 226.466 186.096 223.426C141.476 220.386 95.3359 227.766 40.2759 224.726C-14.7841 221.686 -0.48408 211.256 9.04592 206.726C10.1745 206.198 11.3293 205.727 12.5059 205.316C22.5059 201.776 36.8559 200.226 30.7659 198.696C23.9159 196.956 30.4659 191.306 57.2459 188.486C84.0259 185.666 121.156 186.886 125.086 186.486C178.356 181.706 203.946 193.006 222.686 195.616C241.456 198.236 258.396 202.796 257.506 211.256Z" fill="#C17536"/>
<path d="M257.506 211.256C256.616 219.726 230.716 226.466 186.096 223.426C141.476 220.386 95.3359 227.766 40.2759 224.726C-14.7841 221.686 -0.48408 211.256 9.04592 206.726C10.1745 206.198 11.3293 205.727 12.5059 205.316C11.5559 207.386 6.95592 214.786 14.0859 216.316C22.5659 218.086 30.7359 214.766 33.4659 216.096C36.1959 217.426 36.1859 220.736 44.0559 220.736C51.9259 220.736 56.3359 218.956 57.9259 218.736C59.5159 218.516 60.4059 220.516 65.2559 221.176C70.1059 221.836 74.0659 218.116 76.3259 218.326C78.5859 218.536 80.0859 219.636 83.7159 221.176C87.3459 222.716 92.1959 219.636 94.9259 220.076C97.6559 220.516 104.616 221.396 109.156 221.616C113.696 221.836 123.686 216.536 132.766 218.086C141.846 219.636 181.516 219.406 200.886 218.746C220.256 218.086 221.786 212.336 208.456 209.906C195.126 207.476 179.696 205.486 191.206 205.266C202.716 205.046 203.006 206.146 223.896 207.696C244.786 209.246 254.176 205.926 246.306 203.696C238.436 201.466 245.096 202.156 232.376 198.396C229.446 197.526 226.056 196.586 222.726 195.676C241.456 198.236 258.396 202.796 257.506 211.256Z" fill="#AF5D20"/>
<path d="M126.566 191.626C124.184 192.593 122.058 194.099 120.356 196.026C119.338 197.127 118.063 197.958 116.646 198.446C116.076 198.658 115.525 198.916 114.996 199.216C114.728 199.388 114.491 199.605 114.296 199.856C114.079 200.129 113.935 200.453 113.876 200.796C113.796 201.256 113.736 201.616 113.656 201.906C113.532 202.386 113.288 202.827 112.946 203.186C112.221 203.942 111.413 204.613 110.536 205.186C109.962 205.608 109.357 205.986 108.726 206.316L107.886 206.706C107.436 206.914 107.039 207.221 106.726 207.606C106.288 208.208 105.91 208.851 105.596 209.526C105.069 210.719 104.364 211.825 103.506 212.806C102.622 213.667 101.61 214.386 100.506 214.936C98.7066 215.928 97.0624 217.178 95.6259 218.646C95.4694 218.821 95.3879 219.05 95.3992 219.284C95.4104 219.518 95.5134 219.738 95.6859 219.896C95.7708 219.975 95.8705 220.035 95.9791 220.075C96.0877 220.114 96.2031 220.132 96.3185 220.126C96.434 220.121 96.5471 220.092 96.6514 220.042C96.7557 219.993 96.8491 219.923 96.926 219.836C98.2289 218.514 99.718 217.389 101.346 216.496C102.608 215.857 103.765 215.027 104.776 214.036C105.757 212.927 106.566 211.676 107.176 210.326C107.422 209.803 107.706 209.298 108.026 208.816C108.112 208.682 108.224 208.566 108.356 208.476C108.679 208.293 109.013 208.129 109.356 207.986C110.132 207.599 110.875 207.147 111.576 206.636C112.828 205.848 113.921 204.83 114.796 203.636C115.055 203.233 115.248 202.791 115.366 202.326C115.486 201.896 115.546 201.496 115.626 201.066C115.638 200.998 115.666 200.933 115.706 200.876C115.888 200.686 116.11 200.54 116.356 200.446C118.368 199.793 120.193 198.664 121.676 197.156C122.759 195.954 124.02 194.925 125.416 194.106C125.834 193.861 126.265 193.637 126.706 193.436L127.056 193.286H127.146C127.267 193.257 127.38 193.202 127.478 193.126C127.577 193.05 127.658 192.954 127.717 192.845C127.777 192.736 127.812 192.615 127.822 192.491C127.831 192.367 127.815 192.243 127.774 192.125C127.732 192.008 127.667 191.901 127.581 191.81C127.496 191.72 127.392 191.649 127.278 191.601C127.163 191.553 127.039 191.529 126.915 191.532C126.791 191.535 126.668 191.563 126.556 191.616L126.566 191.626Z" fill="#935324"/>
<path d="M138.886 189.836C138.163 190.093 137.512 190.518 136.986 191.076C136.273 191.906 135.606 192.774 134.986 193.676C134.296 194.607 133.442 195.403 132.466 196.026C131.184 196.725 129.966 197.535 128.826 198.446C127.865 199.301 127.119 200.37 126.646 201.566C126.172 202.738 125.517 203.827 124.706 204.796C123.824 205.784 122.726 206.555 121.496 207.046C119.97 207.722 118.694 208.859 117.846 210.296C116.996 211.586 116.326 212.956 115.346 214.236C114.581 215.2 113.573 215.942 112.426 216.386C111.881 216.616 111.356 216.89 110.856 217.206C110.283 217.582 109.812 218.094 109.486 218.696C109.4 218.9 109.394 219.129 109.467 219.337C109.541 219.546 109.69 219.72 109.884 219.825C110.079 219.93 110.306 219.958 110.521 219.905C110.736 219.851 110.923 219.72 111.046 219.536C111.233 219.182 111.508 218.882 111.846 218.666C112.356 218.316 113.126 218.036 114.006 217.576C115.081 217.039 116.021 216.267 116.756 215.316C117.856 213.856 118.556 212.416 119.316 211.316C119.97 210.171 120.971 209.263 122.176 208.726C123.656 208.13 124.977 207.199 126.036 206.006C126.968 204.905 127.721 203.663 128.266 202.326C128.633 201.368 129.223 200.511 129.986 199.826C131.055 198.991 132.188 198.242 133.376 197.586C134.853 196.622 136.11 195.358 137.066 193.876C137.432 193.344 137.836 192.839 138.276 192.366C138.6 192.005 139.009 191.729 139.466 191.566C139.587 191.539 139.702 191.487 139.802 191.412C139.902 191.338 139.985 191.244 140.046 191.136C140.107 191.027 140.145 190.907 140.157 190.783C140.169 190.659 140.155 190.534 140.116 190.416C140.076 190.298 140.013 190.19 139.929 190.098C139.845 190.006 139.743 189.933 139.629 189.883C139.515 189.833 139.391 189.807 139.267 189.808C139.142 189.808 139.019 189.835 138.906 189.886L138.886 189.836Z" fill="#935324"/>
<path d="M154.266 188.186C152.838 188.259 151.475 188.809 150.396 189.746C148.933 190.978 147.822 192.576 147.176 194.376C146.916 195.107 146.527 195.784 146.026 196.376C145.39 197.091 144.618 197.672 143.756 198.086C142.763 198.567 141.806 199.122 140.896 199.746C140.242 200.223 139.688 200.825 139.266 201.516C138.745 202.433 138.297 203.389 137.926 204.376C137.588 205.248 137.089 206.048 136.456 206.736C135.927 207.216 135.322 207.605 134.666 207.886C133.536 208.426 132.146 208.886 130.856 209.496C130.219 209.771 129.609 210.106 129.036 210.496C128.463 210.898 127.985 211.42 127.636 212.026C126.978 213.461 126.456 214.954 126.076 216.486C125.896 217.094 125.619 217.668 125.256 218.186C124.922 218.648 124.454 218.997 123.916 219.186C123.696 219.267 123.517 219.432 123.418 219.645C123.32 219.858 123.31 220.101 123.391 220.321C123.472 220.541 123.637 220.72 123.85 220.819C124.063 220.917 124.306 220.927 124.526 220.846C125.38 220.538 126.124 219.985 126.666 219.256C127.344 218.244 127.829 217.115 128.096 215.926C128.341 214.889 128.703 213.882 129.176 212.926C129.513 212.393 129.981 211.956 130.536 211.656C131.693 211.026 132.897 210.485 134.136 210.036C135.445 209.581 136.656 208.882 137.706 207.976C138.706 206.854 139.468 205.541 139.946 204.116C140.173 203.538 140.447 202.979 140.766 202.446C141.068 201.944 141.465 201.505 141.936 201.156C143.016 200.356 144.276 199.886 145.546 199.086C146.23 198.656 146.846 198.127 147.376 197.516C148.003 196.759 148.497 195.9 148.836 194.976C149.366 193.469 150.287 192.13 151.506 191.096C152.277 190.427 153.247 190.03 154.266 189.966C154.39 189.979 154.516 189.966 154.634 189.928C154.753 189.89 154.862 189.827 154.955 189.743C155.048 189.66 155.122 189.558 155.173 189.444C155.224 189.33 155.25 189.206 155.25 189.081C155.25 188.956 155.224 188.833 155.173 188.719C155.122 188.605 155.048 188.503 154.955 188.419C154.862 188.336 154.753 188.273 154.634 188.235C154.516 188.196 154.39 188.183 154.266 188.196V188.186Z" fill="#935324"/>
<path d="M163.406 188.686C163.008 188.772 162.632 188.942 162.306 189.186C161.784 189.605 161.36 190.135 161.066 190.736C160.608 191.681 160.201 192.649 159.846 193.636C159.487 194.622 158.996 195.553 158.386 196.406C157.385 197.505 156.132 198.346 154.736 198.856C154.009 199.171 153.312 199.553 152.656 199.996C151.957 200.467 151.4 201.121 151.046 201.886C150.446 203.266 149.896 205.176 149.176 206.946C148.847 207.795 148.442 208.611 147.966 209.386C147.601 210.013 147.115 210.56 146.536 210.996C145.402 211.671 144.211 212.243 142.976 212.706C142.366 212.966 141.804 213.327 141.316 213.776C140.781 214.296 140.406 214.959 140.236 215.686C139.843 216.963 139.26 218.173 138.506 219.276C138.156 219.816 137.826 220.276 137.576 220.616L137.296 220.996L137.216 221.096C137.068 221.279 136.998 221.514 137.023 221.748C137.047 221.982 137.163 222.198 137.346 222.346C137.531 222.491 137.766 222.557 137.999 222.531C138.233 222.505 138.447 222.388 138.596 222.206C138.596 222.206 139.266 221.366 140.006 220.206C140.88 218.944 141.555 217.554 142.006 216.086C142.092 215.679 142.297 215.306 142.596 215.016C143.19 214.533 143.868 214.163 144.596 213.926C145.649 213.537 146.656 213.03 147.596 212.416C148.381 211.853 149.038 211.13 149.526 210.296C150.299 208.995 150.93 207.613 151.406 206.176C151.916 204.786 152.336 203.456 152.726 202.566C152.945 202.094 153.291 201.693 153.726 201.406C154.651 200.837 155.617 200.335 156.616 199.906C157.862 199.342 158.964 198.5 159.836 197.446C160.813 195.977 161.587 194.383 162.136 192.706C162.349 192.11 162.635 191.543 162.986 191.016C163.1 190.85 163.238 190.701 163.396 190.576C163.519 190.481 163.663 190.416 163.816 190.386C164.045 190.337 164.246 190.199 164.373 190.002C164.501 189.805 164.545 189.566 164.496 189.336C164.447 189.107 164.309 188.906 164.112 188.779C163.915 188.651 163.675 188.607 163.446 188.656L163.406 188.686Z" fill="#935324"/>
<path d="M71.1059 192.466C68.1088 193.306 65.2612 194.608 62.6659 196.326C61.1294 197.31 59.4395 198.029 57.6659 198.456C56.9466 198.638 56.2387 198.861 55.5459 199.126C55.1911 199.272 54.8553 199.46 54.5459 199.686C54.2403 199.907 53.9847 200.19 53.7959 200.516C53.5659 200.916 53.3959 201.236 53.2159 201.516C52.9035 201.967 52.5018 202.348 52.0359 202.636C50.9557 203.314 49.8258 203.909 48.6559 204.416C47.5559 204.926 46.8059 205.206 46.2459 205.416L45.1659 205.756C44.5941 205.933 44.054 206.2 43.5659 206.546C42.9222 207.05 42.3203 207.605 41.7659 208.206C40.7637 209.3 39.632 210.267 38.3959 211.086C37.0918 211.855 35.711 212.485 34.2759 212.966C31.937 213.825 29.6893 214.913 27.5659 216.216C27.0859 216.536 26.9559 217.026 27.2759 217.316C27.4953 217.458 27.7528 217.529 28.0137 217.52C28.2747 217.511 28.5267 217.423 28.7359 217.266C30.6641 216.095 32.7001 215.11 34.8159 214.326C36.4423 213.78 38.0048 213.059 39.4759 212.176C40.8815 211.247 42.1707 210.152 43.3159 208.916C43.7731 208.439 44.2572 207.988 44.7659 207.566C44.9169 207.453 45.0775 207.352 45.2459 207.266C45.4459 207.176 45.8359 207.066 46.5159 206.846C47.5377 206.507 48.5393 206.109 49.5159 205.656C51.1499 204.99 52.6897 204.112 54.0959 203.046C54.4747 202.705 54.8105 202.319 55.0959 201.896C55.3459 201.526 55.5359 201.166 55.7459 200.796C55.7852 200.731 55.836 200.673 55.8959 200.626C56.1649 200.456 56.4583 200.328 56.7659 200.246C59.2729 199.677 61.6707 198.704 63.8659 197.366C65.4981 196.289 67.2415 195.391 69.0659 194.686C69.7659 194.406 70.3459 194.216 70.7459 194.096L71.1959 193.966H71.3059C71.8859 193.826 72.3059 193.376 72.2459 192.966C72.1859 192.556 71.6759 192.346 71.0959 192.496L71.1059 192.466Z" fill="#935324"/>
<path d="M85.8559 190.896C84.9527 191.11 84.091 191.471 83.3059 191.966C82.1959 192.656 81.2559 193.466 80.2159 194.236C79.1203 195.083 77.9163 195.779 76.6359 196.306C74.9735 196.927 73.3476 197.642 71.7659 198.446C70.4759 199.15 69.3212 200.078 68.3559 201.186C67.4223 202.259 66.3573 203.21 65.1859 204.016C63.8246 204.895 62.3328 205.553 60.7659 205.966C58.861 206.522 57.1025 207.492 55.6159 208.806C54.2659 209.946 53.0959 211.146 51.6159 212.276C50.4086 213.142 49.0529 213.779 47.6159 214.156C46.9375 214.362 46.27 214.603 45.6159 214.876C44.8766 215.19 44.1993 215.634 43.6159 216.186C43.2159 216.566 43.2559 217.036 43.6859 217.236C43.9378 217.327 44.2101 217.345 44.4718 217.288C44.7334 217.232 44.9739 217.103 45.1659 216.916C45.5092 216.6 45.9052 216.346 46.3359 216.166C47.0359 215.856 47.9959 215.606 49.1559 215.166C50.5272 214.706 51.8166 214.031 52.9759 213.166C54.6759 211.886 55.8959 210.626 57.1059 209.616C58.2555 208.574 59.6215 207.799 61.1059 207.346C62.9663 206.827 64.7343 206.021 66.3459 204.956C67.6837 204.029 68.9057 202.944 69.9859 201.726C70.7464 200.833 71.6651 200.087 72.6959 199.526C74.1734 198.774 75.6925 198.106 77.2459 197.526C79.1776 196.71 80.9772 195.611 82.5859 194.266C83.2559 193.746 83.8559 193.266 84.4159 192.936C84.9092 192.614 85.4536 192.377 86.0259 192.236C86.5959 192.096 87.0259 191.656 87.0259 191.236C87.0259 190.816 86.4759 190.606 85.8959 190.746L85.8559 190.896Z" fill="#935324"/>
<path d="M104.096 189.446C102.376 189.522 100.696 189.991 99.1859 190.816C97.2352 191.812 95.5096 193.197 94.1159 194.886C93.5709 195.564 92.931 196.161 92.2159 196.656C91.246 197.291 90.1971 197.795 89.0959 198.156C87.8123 198.576 86.5507 199.06 85.3159 199.606C84.4488 200.009 83.6439 200.535 82.9259 201.166C82.0774 201.949 81.2823 202.787 80.5459 203.676C79.8631 204.484 79.0604 205.182 78.1659 205.746C77.4103 206.17 76.6084 206.506 75.7759 206.746C74.3059 207.216 72.5659 207.636 70.9159 208.156C70.0934 208.41 69.2883 208.717 68.5059 209.076C67.7553 209.416 67.0607 209.868 66.4459 210.416C65.3045 211.635 64.2706 212.95 63.3559 214.346C62.9443 214.899 62.4637 215.396 61.9259 215.826C61.3837 216.241 60.7602 216.538 60.0959 216.696C59.5159 216.846 59.0959 217.296 59.1559 217.696C59.2159 218.096 59.7459 218.306 60.3159 218.156C61.3767 217.896 62.3735 217.423 63.2459 216.766C64.2643 215.933 65.1451 214.944 65.8559 213.836C66.4704 212.88 67.1807 211.989 67.9759 211.176C68.5515 210.694 69.2084 210.318 69.9159 210.066C71.4295 209.511 72.9717 209.037 74.5359 208.646C76.1789 208.243 77.7646 207.635 79.2559 206.836C80.6622 205.915 81.9086 204.77 82.9459 203.446C83.3924 202.921 83.8734 202.427 84.3859 201.966C84.9041 201.512 85.4829 201.131 86.1059 200.836C87.5859 200.136 89.1759 199.716 90.8759 199.016C91.776 198.649 92.6342 198.186 93.4359 197.636C94.344 197.011 95.1588 196.26 95.8559 195.406C97.012 193.994 98.4447 192.834 100.066 191.996C101.15 191.406 102.353 191.064 103.586 190.996C103.852 191.005 104.115 190.935 104.342 190.797C104.569 190.658 104.751 190.457 104.866 190.216C105.006 189.786 104.666 189.446 104.096 189.446Z" fill="#935324"/>
<path d="M114.506 189.886C114.017 189.959 113.542 190.104 113.096 190.316C112.4 190.665 111.765 191.124 111.216 191.676C110.416 192.456 109.726 193.346 108.966 194.226C108.231 195.125 107.399 195.94 106.486 196.656C104.974 197.637 103.312 198.363 101.566 198.806C100.637 199.086 99.7256 199.42 98.8359 199.806C97.9286 200.195 97.1089 200.763 96.4259 201.476C95.3459 202.676 94.1559 204.356 92.8059 205.916C92.1604 206.678 91.462 207.393 90.7159 208.056C90.0808 208.626 89.3668 209.101 88.5959 209.466C87.0917 210.061 85.5521 210.562 83.9859 210.966C83.2123 211.193 82.4673 211.509 81.7659 211.906C81.0458 212.322 80.4302 212.897 79.9659 213.586C79.1012 214.757 78.0934 215.816 76.9659 216.736C76.4059 217.216 75.8859 217.626 75.5159 217.916L75.0759 218.246L74.9559 218.336C74.4959 218.666 74.4059 219.156 74.7559 219.426C74.9873 219.553 75.2509 219.609 75.5139 219.588C75.7769 219.567 76.028 219.469 76.2359 219.306C76.2359 219.306 77.2359 218.566 78.4459 217.546C79.7201 216.501 80.8559 215.298 81.8259 213.966C82.0808 213.581 82.4235 213.263 82.8259 213.036C83.6514 212.597 84.528 212.261 85.4359 212.036C86.7698 211.693 88.0766 211.251 89.3459 210.716C90.3759 210.235 91.3294 209.605 92.1759 208.846C93.4013 207.746 94.5258 206.537 95.5359 205.236C96.5359 204.006 97.3959 202.846 98.1059 202.066C98.5343 201.632 99.0485 201.291 99.6159 201.066C100.849 200.562 102.107 200.121 103.386 199.746C104.966 199.269 106.459 198.54 107.806 197.586C109.296 196.359 110.638 194.963 111.806 193.426C112.25 192.886 112.742 192.387 113.276 191.936C113.465 191.788 113.669 191.66 113.886 191.556C114.052 191.471 114.231 191.414 114.416 191.386C114.67 191.368 114.912 191.268 115.106 191.103C115.301 190.938 115.437 190.715 115.496 190.466C115.496 190.046 115.066 189.786 114.496 189.876L114.506 189.886Z" fill="#935324"/>
<path d="M175.446 194.276C175.446 194.276 169.936 193.716 169.606 189.776C169.276 185.836 175.566 189.776 175.446 194.276Z" fill="#306F54"/>
<path d="M170.986 189.816C172.642 191.123 174.139 192.62 175.446 194.276C175.067 193.256 174.473 192.329 173.703 191.559C172.934 190.789 172.007 190.195 170.986 189.816Z" fill="#59A780"/>
<path d="M175.446 194.276C175.446 194.276 180.446 193.776 180.716 190.226C180.986 186.676 175.346 190.226 175.446 194.276Z" fill="#306F54"/>
<path d="M179.466 190.256C177.981 191.429 176.638 192.771 175.466 194.256C175.808 193.342 176.342 192.512 177.032 191.822C177.722 191.132 178.552 190.598 179.466 190.256Z" fill="#59A780"/>
<path d="M169.336 202.896C169.336 202.896 163.826 202.336 163.486 198.396C163.146 194.456 169.446 198.396 169.336 202.896Z" fill="#306F54"/>
<path d="M164.866 198.436C166.527 199.741 168.027 201.238 169.336 202.896C168.956 201.875 168.36 200.947 167.589 200.177C166.817 199.407 165.888 198.814 164.866 198.436Z" fill="#59A780"/>
<path d="M169.336 202.896C169.336 202.896 174.336 202.396 174.596 198.846C174.856 195.296 169.236 198.846 169.336 202.896Z" fill="#306F54"/>
<path d="M173.356 198.876C171.871 200.049 170.528 201.391 169.356 202.876C169.698 201.962 170.232 201.132 170.922 200.442C171.612 199.752 172.442 199.218 173.356 198.876Z" fill="#59A780"/>
<path d="M163.216 211.516C163.216 211.516 157.716 210.956 157.376 207.016C157.036 203.076 163.336 207.016 163.216 211.516Z" fill="#306F54"/>
<path d="M158.766 207.056C160.422 208.363 161.919 209.86 163.226 211.516C162.847 210.496 162.253 209.569 161.483 208.799C160.714 208.029 159.787 207.435 158.766 207.056Z" fill="#59A780"/>
<path d="M163.216 211.516C163.216 211.516 168.216 211.006 168.486 207.466C168.756 203.926 163.116 207.466 163.216 211.516Z" fill="#306F54"/>
<path d="M167.246 207.496C165.763 208.671 164.42 210.013 163.246 211.496C163.589 210.583 164.124 209.754 164.814 209.064C165.504 208.374 166.333 207.84 167.246 207.496Z" fill="#59A780"/>
<path d="M157.106 220.136C157.106 220.136 151.596 219.576 151.256 215.636C150.916 211.696 157.216 215.636 157.106 220.136Z" fill="#306F54"/>
<path d="M152.646 215.676C154.302 216.983 155.799 218.48 157.106 220.136C156.727 219.116 156.133 218.189 155.363 217.419C154.594 216.649 153.667 216.055 152.646 215.676Z" fill="#59A780"/>
<path d="M157.106 220.136C157.106 220.136 162.106 219.626 162.376 216.136C162.646 212.646 157.006 216.086 157.106 220.136Z" fill="#306F54"/>
<path d="M161.126 216.116C159.641 217.289 158.298 218.631 157.126 220.116C157.468 219.202 158.002 218.372 158.692 217.682C159.382 216.992 160.212 216.458 161.126 216.116Z" fill="#59A780"/>
<path d="M180.996 67.5563C180.626 68.7863 180.246 69.8663 179.886 70.7963C178.286 74.7963 176.886 76.1463 176.886 76.1463L171.176 70.2463C171.176 70.2463 167.546 71.3363 166.246 70.0863C164.946 68.8363 162.766 64.4063 164.066 61.8663C165.366 59.3263 169.346 54.7063 170.896 55.5863C171.786 56.3174 172.558 57.1808 173.186 58.1463C174.956 60.5663 176.906 63.7563 176.906 63.7563L180.996 67.5563Z" fill="#E59973"/>
<path d="M268.576 34.1063C260.686 42.7263 249.396 43.0263 249.396 43.0263L248.486 39.6063C247.316 35.2763 245.326 27.7863 244.076 22.9263C242.236 15.7663 243.136 13.7963 245.076 12.2763C250.076 8.35628 261.936 24.4163 266.596 31.2063C267.856 32.9663 268.576 34.1063 268.576 34.1063Z" fill="#706C6C"/>
<path d="M268.576 34.1063C260.686 42.7263 249.396 43.0263 249.396 43.0263L248.486 39.6063C252.986 38.6763 261.546 36.5063 266.626 31.2063C267.856 32.9663 268.576 34.1063 268.576 34.1063Z" fill="#A5A5A5"/>
<path d="M134.486 80.3463L245.166 14.0263C245.625 13.7507 246.172 13.6583 246.696 13.7677C247.221 13.877 247.685 14.18 247.996 14.6163C248.164 14.8553 248.282 15.1263 248.341 15.4127C248.4 15.699 248.399 15.9944 248.339 16.2805C248.279 16.5666 248.161 16.8373 247.992 17.0757C247.823 17.3141 247.606 17.5151 247.356 17.6663L136.926 84.3963C136.644 84.5667 136.33 84.6763 136.003 84.718C135.677 84.7597 135.345 84.7326 135.029 84.6384C134.714 84.5442 134.422 84.385 134.171 84.1711C133.921 83.9572 133.718 83.6933 133.576 83.3963C133.32 82.866 133.271 82.2591 133.439 81.6948C133.608 81.1304 133.981 80.6495 134.486 80.3463Z" fill="#6B3910"/>
<path d="M180.996 67.5563C180.626 68.7863 180.246 69.8663 179.886 70.7963C178.372 69.2857 176.968 67.6682 175.686 65.9563C174.906 64.6963 173.756 60.3963 173.186 58.1463C174.956 60.5663 176.906 63.7563 176.906 63.7563L180.996 67.5563Z" fill="#FFB78F"/>
<path d="M161.616 61.5663C161.393 62.0208 161.278 62.5202 161.278 63.0263C161.278 63.5324 161.393 64.0317 161.616 64.4863C162.326 65.9963 162.866 66.8463 163.356 67.0363C163.846 67.2263 164.746 67.2663 164.806 66.1163C164.903 66.2131 165.019 66.2889 165.146 66.3391C165.274 66.3893 165.41 66.4128 165.547 66.4081C165.684 66.4034 165.818 66.3707 165.942 66.3119C166.066 66.2531 166.176 66.1695 166.266 66.0663C166.491 65.8897 166.659 65.6494 166.746 65.3766C166.833 65.1038 166.837 64.811 166.756 64.5363C167.004 64.7531 167.327 64.864 167.656 64.8453C167.985 64.8266 168.294 64.6798 168.516 64.4363C168.756 64.1907 168.931 63.8897 169.027 63.5601C169.123 63.2304 169.137 62.8823 169.066 62.5463C169.066 62.5463 170.186 63.4063 171.066 62.7363C171.946 62.0663 171.446 60.8563 170.676 59.0963C169.906 57.3363 170.866 56.2063 170.506 55.4763C170.301 55.2326 170.035 55.0468 169.736 54.9372C169.436 54.8277 169.114 54.7983 168.799 54.8518C168.485 54.9054 168.19 55.04 167.944 55.2425C167.698 55.445 167.509 55.7083 167.396 56.0063C167.073 55.9308 166.736 55.9295 166.412 56.0025C166.088 56.0755 165.785 56.2208 165.526 56.4277C165.266 56.6345 165.056 56.8975 164.913 57.1969C164.769 57.4962 164.695 57.8242 164.696 58.1563C164.696 58.1563 162.476 58.8663 162.446 60.5463L161.616 61.5663Z" fill="#FFB78F"/>
<path d="M176.766 65.2963C176.75 65.3574 176.723 65.4151 176.686 65.4663C176.126 66.4663 173.626 68.6263 171.936 67.5263C171.246 67.0763 171.126 66.0563 171.236 64.9763C171.34 64.0953 171.534 63.2273 171.816 62.3863C172.006 61.7663 172.176 61.3863 172.176 61.3863C172.176 61.3863 168.866 62.9063 167.386 62.3163C167.268 62.2669 167.165 62.1883 167.086 62.0878C167.007 61.9873 166.955 61.8683 166.935 61.742C166.915 61.6158 166.927 61.4865 166.971 61.3665C167.015 61.2465 167.089 61.1397 167.186 61.0563L168.186 60.2263C169.158 59.3671 170.253 58.6592 171.436 58.1263C172.846 57.7363 174.986 58.3663 176.376 59.0363C177.766 59.7063 177.056 64.4463 176.766 65.2963Z" fill="#FFB78F"/>
<path d="M172.136 61.3463C172.136 61.3463 168.826 62.8663 167.346 62.2763C167.228 62.2269 167.125 62.1483 167.046 62.0478C166.967 61.9473 166.915 61.8282 166.895 61.702C166.875 61.5758 166.887 61.4465 166.931 61.3265C166.975 61.2065 167.049 61.0997 167.146 61.0163L168.146 60.1863C168.146 60.6563 168.146 61.9163 169.876 61.0863C170.92 60.5204 172.08 60.2022 173.266 60.1563C172.677 60.8355 172.173 61.5844 171.766 62.3863C171.966 61.7663 172.136 61.3463 172.136 61.3463Z" fill="#E59973"/>
<path d="M176.646 65.4663C176.086 66.4663 173.586 68.6263 171.896 67.5263C171.206 67.0763 171.086 66.0563 171.196 64.9763C171.876 66.2163 174.766 66.5163 176.646 65.4663Z" fill="#E59973"/>
<path d="M204.026 69.4463C200.686 76.1063 196.026 91.1463 191.206 90.7563C186.386 90.3663 174.596 75.3163 174.596 75.3163C174.475 73.5115 174.957 71.7178 175.966 70.2163C177.387 68.3655 179.462 67.1278 181.766 66.7563L188.686 72.5663C190.918 67.7751 192.722 62.7956 194.076 57.6863C196.306 49.2863 199.586 46.6863 199.586 46.6863L200.676 47.2463L201.216 47.5263C205.396 50.6063 207.366 62.7763 204.026 69.4463Z" fill="#D8C7BA"/>
<path d="M204.026 69.4463C200.686 76.1063 196.026 91.1463 191.206 90.7563C186.386 90.3663 174.596 75.3163 174.596 75.3163C174.475 73.5115 174.957 71.7177 175.966 70.2163C178.726 72.6863 185.616 78.7863 188.316 80.7563C191.736 83.2563 196.316 72.2763 196.316 72.2763C196.316 72.2763 191.896 76.0563 190.976 76.2763C190.056 76.4963 195.466 64.2763 197.736 56.3963C198.532 53.2896 199.534 50.2395 200.736 47.2663L201.276 47.5463C205.396 50.6063 207.366 62.7763 204.026 69.4463Z" fill="#C4B2A5"/>
<path d="M208.326 192.616C209.343 196.715 209.843 200.924 209.816 205.146C209.816 205.146 176.356 206.956 176.036 206.296C175.847 205.645 175.827 204.956 175.977 204.295C176.128 203.634 176.444 203.022 176.896 202.516C177.502 201.861 178.288 201.398 179.156 201.186C182.706 200.186 195.566 194.526 196.416 192.266C196.423 192.22 196.423 192.173 196.416 192.126C196.746 189.976 197.566 175.976 197.566 175.306L210.566 174.986L208.326 192.616Z" fill="#DD890E"/>
<path d="M195.156 196.966C191.516 199.746 183.476 202.736 179.846 202.656C178.486 202.656 177.536 202.586 176.846 202.536C177.452 201.881 178.238 201.418 179.106 201.206C182.656 200.206 195.516 194.546 196.366 192.286L196.466 192.396C196.466 192.396 198.766 194.166 195.156 196.966Z" fill="#EDA024"/>
<path d="M222.326 97.3863L222.206 98.2363L219.086 120.546C219.086 120.546 216.086 144.436 215.606 156.636C215.126 168.836 215.856 170.076 212.126 176.306C208.396 182.536 197.186 179.536 194.696 175.806C193.837 174.396 193.435 172.754 193.546 171.106C193.546 167.386 194.696 161.996 195.196 153.106C195.716 143.706 197.816 120.106 198.786 106.446C199.196 100.586 199.406 96.5763 199.176 96.3563L221.656 97.3563L222.326 97.3863Z" fill="#25596E"/>
<g style="mix-blend-mode:multiply" opacity="0.5">
<path d="M197.576 147.436C199.63 148.172 201.805 148.511 203.986 148.436C207.546 148.286 201.856 154.436 200.146 155.266C198.436 156.096 194.876 145.866 197.576 147.436Z" fill="#2F6C7F"/>
</g>
<g style="mix-blend-mode:multiply" opacity="0.5">
<path d="M222.206 98.2363L219.086 120.546C219.086 120.546 216.086 144.436 215.606 156.636C215.126 168.836 215.856 170.076 212.126 176.306C208.396 182.536 197.186 179.536 194.696 175.806C193.837 174.396 193.435 172.754 193.546 171.106C207.596 171.756 210.666 165.026 210.256 149.996C209.906 137.106 212.826 129.476 213.256 128.486C213.216 128.553 213.156 128.673 213.076 128.846C211.796 131.406 203.456 144.226 205.386 133.326C207.316 122.426 217.386 113.026 210.516 111.326C206.415 110.201 202.469 108.576 198.766 106.486C199.176 100.626 199.386 96.6163 199.156 96.3963L221.636 97.3963L222.206 98.2363Z" fill="#2F6C7F"/>
</g>
<path d="M237.996 175.966L243.106 199.036C243.106 199.036 241.106 207.936 241.616 211.396C242.126 214.856 248.216 216.006 252.006 215.516C255.796 215.026 257.936 211.886 257.936 210.906C257.936 209.926 253.156 198.906 253.156 198.906C253.156 198.906 252.336 178.146 251.506 173.366C250.676 168.586 237.996 175.966 237.996 175.966Z" fill="#DD890E"/>
<path d="M244.766 199.436C244.766 199.436 244.906 206.206 245.126 208.836C245.346 211.466 253.386 209.836 254.306 207.626C255.226 205.416 253.166 201.286 252.386 200.006C251.606 198.726 250.936 200.146 244.766 199.436Z" fill="#EDA024"/>
<path d="M252.696 171.316V171.416C252.626 182.016 241.696 180.526 237.506 178.296C233.316 176.066 230.506 160.366 227.306 146.926C224.156 133.846 214.166 99.5363 213.876 98.6363L236.266 94.4063C236.266 94.4063 237.056 96.5863 238.116 99.6363C238.596 101.026 239.116 102.636 239.666 104.236C241.016 108.356 242.396 112.846 242.996 115.726C243.096 116.216 243.186 116.666 243.236 117.056C243.986 122.536 252.696 160.616 252.696 171.316Z" fill="#25596E"/>
<g style="mix-blend-mode:multiply" opacity="0.5">
<path d="M242.996 115.726L241.456 115.596C241.154 115.971 240.892 116.376 240.676 116.806C240.456 117.306 238.396 117.446 237.756 117.016C237.116 116.586 236.826 114.016 236.826 114.016C236.826 114.016 235.116 113.596 235.476 112.016C235.786 110.636 238.936 105.426 239.666 104.226C241.016 108.356 242.396 112.846 242.996 115.726Z" fill="#2F6C7F"/>
</g>
<g style="mix-blend-mode:multiply" opacity="0.5">
<path d="M252.696 171.416C252.626 182.016 241.696 180.526 237.506 178.296C233.316 176.066 230.506 160.366 227.306 146.926C224.156 133.846 214.166 99.5363 213.876 98.6363L236.266 94.4063C236.266 94.4063 237.056 96.5863 238.116 99.6363C233.823 102.633 228.924 104.65 223.766 105.546C212.376 107.686 230.046 127.916 232.766 133.046C235.486 138.176 234.616 135.896 228.206 131.616C221.796 127.336 234.476 148.966 235.616 151.966C236.756 154.966 232.906 151.546 232.056 151.116C231.206 150.686 234.196 161.946 243.446 159.116C252.696 156.286 247.446 162.966 242.736 164.386C238.976 165.526 246.686 173.766 252.696 171.416Z" fill="#2F6C7F"/>
</g>
<path d="M237.006 98.4563C234.516 100.236 205.626 101.656 199.956 99.3463C194.286 97.0363 197.826 81.0863 197.646 71.8663C197.466 62.6463 197.646 53.9663 199.646 46.7063C199.646 46.7063 210.996 38.1863 216.646 36.7763C222.296 35.3663 236.496 44.5763 237.386 45.4663C237.626 46.1955 237.748 46.9585 237.746 47.7263C238.326 54.5263 238.746 74.7263 239.246 84.1263C239.336 85.8163 239.416 87.1263 239.516 87.9963C240.196 94.5563 239.486 96.6863 237.006 98.4563Z" fill="#D8C7BA"/>
<path d="M228.496 67.2263C228.496 67.2263 225.076 76.0563 217.096 79.7663C209.116 83.4763 204.416 78.6263 201.096 77.0563C197.776 75.4863 202.096 92.2963 214.346 92.8663C226.596 93.4363 234.616 57.9663 228.496 67.2263Z" fill="#C4B2A5"/>
<path d="M239.216 84.1263C237.101 80.7457 235.393 77.1274 234.126 73.3463C229.986 60.6763 233.476 47.5463 235.836 47.2763C236.482 47.3288 237.116 47.4806 237.716 47.7263C238.296 54.5263 238.766 74.7263 239.216 84.1263Z" fill="#C4B2A5"/>
<path d="M252.026 93.6463L251.266 97.6463L250.556 101.376C250.056 104.946 250.036 110.986 249.656 112.016C249.656 112.066 249.656 112.116 249.596 112.136C249.156 112.656 248.036 112.586 248.036 112.586C247.679 113.064 247.23 113.465 246.716 113.766C246.196 113.866 245.658 113.813 245.166 113.616C245.166 113.616 244.166 114.496 243.466 114.426C242.766 114.356 241.466 113.026 241.466 113.026C241.24 113.466 240.943 113.865 240.586 114.206C240.076 114.656 238.296 114.356 237.786 113.906C237.276 113.456 237.916 111.176 238.036 110.746C238.038 110.723 238.038 110.7 238.036 110.676L236.266 109.616C236.164 108.517 236.195 107.409 236.356 106.316C236.461 105.622 236.67 104.948 236.976 104.316C238.036 102.196 243.356 100.066 243.356 100.066L244.176 96.2863L245.126 91.9063L252.026 93.6463Z" fill="#FFB78F"/>
<path d="M238.766 107.016C238.686 107.396 238.036 110.466 238.046 110.686L236.276 109.626C236.174 108.527 236.205 107.419 236.366 106.326C236.537 107.058 236.912 107.727 237.446 108.256C238.176 108.716 238.686 107.286 238.766 107.016Z" fill="#E59973"/>
<path d="M249.656 112.026C249.656 112.076 249.656 112.126 249.596 112.146C249.156 112.666 248.036 112.596 248.036 112.596C247.679 113.074 247.23 113.475 246.716 113.776C246.196 113.876 245.658 113.823 245.166 113.626C245.166 113.626 244.166 114.506 243.466 114.436C242.766 114.366 241.466 113.036 241.466 113.036L241.946 111.776C242.661 112.232 243.489 112.478 244.336 112.486C244.868 112.395 245.375 112.194 245.826 111.896C246.166 112.099 246.555 112.206 246.951 112.206C247.347 112.206 247.736 112.099 248.076 111.896C248.586 112.058 249.126 112.102 249.656 112.026Z" fill="#E59973"/>
<path d="M252.026 93.6463L251.266 97.6463C248.849 97.6105 246.458 97.1431 244.206 96.2663L245.156 91.8863L252.026 93.6463Z" fill="#E59973"/>
<path d="M253.126 94.3863C247.986 97.7563 242.126 93.3163 242.126 93.3163L242.306 92.0363L244.246 78.0363C242.661 76.3802 241.166 74.6411 239.766 72.8263C237.737 70.288 235.883 67.6152 234.216 64.8263C229.606 57.0163 235.446 44.2863 237.406 45.5063C241.126 47.8063 256.906 70.8463 257.086 73.6863C257.266 76.5263 253.126 94.3863 253.126 94.3863Z" fill="#D8C7BA"/>
<path d="M251.286 78.1963C253.956 77.1263 251.386 81.3963 247.976 81.9863C245.446 82.4163 243.286 88.7363 242.326 91.9863L244.266 77.9863C242.676 76.3469 241.174 74.6245 239.766 72.8263C241.02 73.8342 242.415 74.6529 243.906 75.2563C245.223 75.7446 246.624 75.9677 248.028 75.9128C249.432 75.8579 250.811 75.526 252.086 74.9363C254.386 73.8663 253.576 77.1263 249.416 77.5563C245.256 77.9863 248.626 79.2663 251.286 78.1963Z" fill="#C4B2A5"/>
<path d="M204.216 43.4363C202.722 62.5053 202.408 81.6485 203.276 100.756L207.016 101.126C207.016 101.126 204.776 59.6763 207.386 41.3763L204.216 43.4363Z" fill="#25596E"/>
<path d="M227.906 39.1563C227.906 39.1563 223.316 63.6363 226.606 100.756L230.376 100.336C230.376 100.336 228.486 59.2863 231.096 40.9863L227.906 39.1563Z" fill="#25596E"/>
<path d="M221.426 39.0363C221.426 39.0363 217.686 44.4563 214.946 44.1963C212.206 43.9363 212.196 40.6463 212.196 40.6463C212.196 40.1163 212.256 39.6463 212.266 39.1463C212.359 37.325 212.153 35.5008 211.656 33.7463C215.006 29.1263 221.836 27.7463 221.836 27.7463C221.606 29.3463 221.456 30.8163 221.366 32.1163C221.173 34.4199 221.193 36.7364 221.426 39.0363Z" fill="#FFB78F"/>
<path d="M221.836 27.7863C221.606 29.3863 221.456 30.8563 221.366 32.1563C220.366 35.1563 217.946 38.3663 212.266 39.1563C212.359 37.335 212.153 35.5108 211.656 33.7563C215.006 29.1263 221.836 27.7863 221.836 27.7863Z" fill="#E59973"/>
<path d="M206.046 8.41628C207.118 6.36876 208.073 4.26204 208.906 2.10628C208.906 2.10628 212.966 -2.35372 221.666 1.70628C230.366 5.76628 229.846 12.4063 229.846 12.4063C228.324 14.5116 227.093 16.8123 226.186 19.2463C226.186 19.2463 213.026 17.8563 206.046 8.41628Z" fill="#FFB03E"/>
<path d="M198.476 10.1463C196.606 14.6663 205.846 16.5263 212.036 18.5863C218.226 20.6463 227.316 28.5863 229.376 21.6463C231.436 14.7063 220.006 6.22629 209.906 6.22629C199.806 6.22629 198.476 10.1463 198.476 10.1463Z" fill="#EDA024"/>
<path d="M221.766 21.5663C221.176 28.2563 220.246 34.4763 213.676 34.9463C207.106 35.4163 204.996 33.1863 205.226 28.4863C205.243 25.5804 204.931 22.682 204.296 19.8463C204.118 18.8564 204.034 17.8519 204.046 16.8463C204.166 13.7863 206.136 11.5763 210.626 11.3263C212.729 11.1858 214.834 11.5779 216.746 12.4663C218.446 13.2461 219.852 14.551 220.755 16.1891C221.659 17.8271 222.013 19.7119 221.766 21.5663Z" fill="#FFB78F"/>
<path d="M216.696 12.4963C216.633 13.23 216.444 13.9473 216.136 14.6163C213.136 21.3763 206.016 20.2463 204.246 19.8463C204.068 18.8565 203.984 17.852 203.996 16.8463C204.116 13.7863 206.086 11.5763 210.576 11.3263C212.682 11.1952 214.787 11.5976 216.696 12.4963Z" fill="#E59973"/>
<path d="M214.446 10.8563C211.446 7.70627 201.756 8.52627 201.046 13.5063C201.036 13.6294 201.036 13.7531 201.046 13.8763C200.766 19.1863 204.526 19.0463 209.576 18.5763C210.948 18.5184 212.284 18.1231 213.467 17.4254C214.649 16.7277 215.642 15.7491 216.356 14.5763C216.356 14.5763 216.686 18.9563 217.496 20.1563C217.843 20.6481 218.228 21.1128 218.646 21.5463C219.486 22.4463 220.376 23.2463 220.376 23.2463L220.216 25.1163V25.5363C218.936 28.5363 215.216 29.3663 215.216 29.3663C214.152 28.5248 212.995 27.81 211.766 27.2363C210.87 26.7949 209.871 26.6048 208.876 26.6863C208.01 26.6668 207.154 26.8773 206.396 27.2963C205.354 27.8271 204.558 28.7411 204.176 29.8463C203.89 30.5343 203.682 31.2521 203.556 31.9863C202.936 35.8063 205.986 37.3663 213.106 36.8963C213.92 36.8499 214.725 36.7089 215.506 36.4763C216.505 36.1657 217.43 35.6554 218.226 34.9763C221.396 32.2663 221.366 27.6963 221.366 27.6963C224.666 24.2763 224.856 17.9563 224.856 17.9563C221.446 12.4363 214.856 10.9663 214.446 10.8563ZM206.226 29.9663C206.775 29.8899 207.298 29.6853 207.753 29.3691C208.208 29.0529 208.583 28.634 208.846 28.1463C208.846 28.1463 209.086 29.3163 211.666 29.5663C211.996 29.5691 212.321 29.6399 212.622 29.7741C212.923 29.9083 213.193 30.103 213.416 30.3463C214.126 31.2463 213.416 32.5663 211.736 32.5163C209.246 32.4563 209.656 30.8363 209.656 30.8363L208.576 30.8963C208.576 30.8963 208.576 32.5163 207.176 32.1763C205.776 31.8363 206.226 29.9663 206.226 29.9663Z" fill="#B2AFAD"/>
<path d="M217.066 34.4163C216.586 35.1398 216.054 35.8282 215.476 36.4763C214.695 36.7089 213.89 36.8499 213.076 36.8963C205.956 37.3663 202.906 35.8063 203.526 31.9863C203.588 32.8713 203.885 33.7238 204.386 34.4563C204.85 34.9071 205.469 35.1645 206.116 35.1763C206.116 35.1763 205.976 35.0463 205.916 34.1763C206.489 34.9278 207.332 35.4264 208.266 35.5663C207.974 34.9702 207.84 34.3091 207.876 33.6463C208.611 34.5449 209.57 35.2346 210.656 35.6463L210.536 34.5763C211.009 35.1781 211.678 35.5955 212.426 35.7563C213.656 36.0163 215.096 34.7563 215.236 34.5963C215.162 34.9726 214.982 35.3197 214.716 35.5963C215.577 35.3815 216.38 34.9785 217.066 34.4163Z" fill="#999796"/>
<path d="M214.586 31.0763C214.244 30.7681 213.847 30.5273 213.416 30.3663C213.193 30.123 212.923 29.9283 212.622 29.7941C212.321 29.6599 211.996 29.5891 211.666 29.5863C209.086 29.3363 208.846 28.1663 208.846 28.1663C208.58 28.6503 208.205 29.0653 207.75 29.3779C207.295 29.6905 206.773 29.892 206.226 29.9663C206.226 29.9663 205.966 30.1063 205.116 29.6663C205.633 29.6295 206.121 29.4138 206.496 29.0563L206.326 29.3463C206.326 29.3463 208.136 28.7463 208.566 27.3963L208.706 27.7763L208.796 27.1163C209.058 27.5528 209.423 27.9187 209.858 28.1819C210.294 28.4451 210.788 28.5976 211.296 28.6263C211.093 28.6982 210.881 28.7419 210.666 28.7563C210.666 28.7563 211.856 29.0063 213.106 29.3863C213.48 29.5118 213.814 29.7344 214.074 30.0313C214.334 30.3282 214.511 30.6888 214.586 31.0763Z" fill="#999796"/>
<path d="M224.826 17.9663C224.826 17.9663 224.636 24.2863 221.336 27.7063C221.336 27.7063 221.336 32.2763 218.196 34.9863C218.878 33.8744 219.352 32.6478 219.596 31.3663C219.027 32.0525 218.352 32.6433 217.596 33.1163C218.09 32.6613 218.527 32.1474 218.896 31.5863C219.56 30.4727 220.011 29.2451 220.226 27.9663L219.656 28.3663C220.057 27.3252 220.231 26.2102 220.166 25.0963C220.151 24.5191 220.091 23.944 219.986 23.3763C219.463 22.8068 218.997 22.1871 218.596 21.5263C217.794 20.2362 217.272 18.7914 217.066 17.2863C217.854 18.7034 218.902 19.9588 220.156 20.9863C218.861 19.1968 217.965 17.151 217.526 14.9863C218.335 17.0552 219.724 18.8468 221.526 20.1463C220.669 18.8955 219.995 17.5283 219.526 16.0863C220.626 17.2563 222.296 18.8663 222.526 19.0863C222.04 17.9927 221.451 16.9479 220.766 15.9663C219.306 13.6563 214.766 10.9663 214.446 10.8463C214.856 10.9663 221.446 12.4363 224.826 17.9663Z" fill="#999796"/>
<path d="M216.306 14.5263C215.592 15.6991 214.6 16.6777 213.417 17.3754C212.234 18.0731 210.898 18.4684 209.526 18.5263C204.526 18.9963 200.716 19.1363 200.996 13.8263C200.986 13.7031 200.986 13.5794 200.996 13.4563C201.419 14.7351 202.248 15.841 203.356 16.6063C205.356 17.7463 209.686 16.1863 210.756 13.1563C210.756 13.1563 210.626 15.9363 208.516 17.1063C208.516 17.1063 212.726 16.5463 213.966 12.7963C213.999 13.5082 213.865 14.2178 213.575 14.8688C213.285 15.5199 212.847 16.0942 212.296 16.5463C213.288 16.2225 214.188 15.6645 214.919 14.9195C215.65 14.1746 216.191 13.2645 216.496 12.2663C216.53 13.0246 216.466 13.7842 216.306 14.5263Z" fill="#999796"/>
<path d="M220.546 24.8063C220.558 24.3467 220.685 23.8975 220.914 23.4987C221.142 23.1 221.466 22.7642 221.857 22.5214C222.247 22.2787 222.692 22.1365 223.151 22.1077C223.609 22.0789 224.068 22.1643 224.486 22.3563H224.566C227.046 23.6263 224.436 29.6263 220.136 28.2863L220.546 24.8063Z" fill="#FFB78F"/>
<path d="M222.266 24.0763C222.141 24.5129 222.067 24.9626 222.046 25.4163C222.046 26.1363 221.206 26.6063 221.206 26.6063C221.206 26.6063 221.556 27.6063 223.476 26.2063C225.396 24.8063 224.816 23.4863 223.616 23.3463C222.416 23.2063 222.266 24.0763 222.266 24.0763Z" fill="#E89C77"/>
<path d="M223.616 23.3463C223.616 23.3463 222.516 23.0663 221.746 24.5263C221.746 24.5263 222.216 24.9163 221.796 25.6963C221.572 26.1155 221.322 26.5197 221.046 26.9063C221.046 26.9063 222.266 26.1463 222.426 25.3663C222.586 24.5863 222.286 24.4963 222.286 24.4963C222.286 24.4963 222.706 23.4163 223.616 23.3463Z" fill="#5D291B"/>
<path d="M205.226 21.1863C205.226 21.1863 205.756 19.9163 208.076 19.7563L208.506 20.9763C207.408 20.8849 206.303 20.9557 205.226 21.1863Z" fill="#B2AFAD"/>
<path d="M207.076 22.1963C206.236 22.3163 206.126 24.5163 207.236 24.5163C208.346 24.5163 208.136 22.0363 207.076 22.1963Z" fill="#5D291B"/>
<path d="M207.286 22.4863C206.866 22.5563 206.806 23.6563 207.366 23.6563C207.926 23.6563 207.816 22.4063 207.286 22.4863Z" fill="white"/>
<path d="M210.456 21.0263L210.886 19.6563C211.709 19.4897 212.561 19.5217 213.369 19.7495C214.178 19.9773 214.921 20.3944 215.536 20.9663C213.859 20.6136 212.124 20.6341 210.456 21.0263Z" fill="#B2AFAD"/>
<path d="M211.466 21.7163C210.726 21.8263 210.516 24.1463 211.836 24.2063C213.156 24.2663 212.946 21.5063 211.466 21.7163Z" fill="#5D291B"/>
<path d="M211.766 22.0563C211.386 22.1163 211.276 23.3163 211.956 23.3463C212.636 23.3763 212.486 21.9663 211.766 22.0563Z" fill="white"/>
<path d="M208.926 22.2463C208.926 22.2463 208.926 24.5763 208.076 25.4163C207.226 26.2563 209.876 26.3163 209.876 26.3163C209.437 26.1335 209.029 25.8839 208.666 25.5763C208.506 25.3163 209.346 24.6263 208.926 22.2463Z" fill="#5D291B"/>
<path d="M100.236 204.486C99.8559 205.486 70.0959 204.106 70.0959 202.806C70.0959 198.506 76.4659 174.096 76.4659 174.096L89.7659 178.506L83.3959 193.326C83.3959 193.326 97.5659 199.946 98.8659 200.596C99.363 200.883 99.7555 201.321 99.9859 201.846C100.385 202.667 100.474 203.605 100.236 204.486Z" fill="#DD890E"/>
<path d="M99.9359 201.846C99.6822 202.123 99.373 202.344 99.0284 202.494C98.6839 202.644 98.3117 202.72 97.9359 202.716C96.1559 202.366 77.8659 199.976 77.1459 197.826C76.4259 195.676 83.3859 193.326 83.3859 193.326C83.3859 193.326 97.5559 199.946 98.8559 200.596C99.3381 200.889 99.716 201.327 99.9359 201.846Z" fill="#EDA024"/>
<path d="M100.976 148.576C98.9759 158.216 94.4859 174.006 91.7559 178.106C88.0659 183.646 76.4659 182.106 75.1559 175.206C73.8459 168.306 81.2159 146.206 81.2159 146.206C81.2159 146.206 58.8159 122.526 57.7659 119.896C56.7159 117.266 57.0859 105.476 58.0259 105.656C59.3359 105.926 78.0259 103.816 79.3559 105.126C80.0459 105.816 85.9659 114.316 91.5759 122.986C96.8759 131.146 101.896 139.446 102.026 141.486C101.905 143.878 101.554 146.252 100.976 148.576Z" fill="#25596E"/>
<g style="mix-blend-mode:multiply" opacity="0.5">
<path d="M100.976 148.576C98.9759 158.216 94.4859 174.006 91.7559 178.106C88.0659 183.646 76.4659 182.106 75.1559 175.206C73.8459 168.306 81.2159 146.206 81.2159 146.206C81.2159 146.206 58.8159 122.526 57.7659 119.896C56.7159 117.266 57.0859 105.476 58.0259 105.656C59.3359 105.926 78.0259 103.816 79.3559 105.126C80.0459 105.816 85.9659 114.316 91.5759 122.986C90.5759 129.986 89.4059 136.986 88.7359 139.226C87.2859 144.226 85.6659 145.696 87.9259 149.086C90.0859 152.316 97.2259 150.576 100.976 148.576Z" fill="#2F6C7F"/>
</g>
<path d="M60.226 212.036C60.226 212.036 29.586 212.876 29.316 211.036C29.046 209.196 38.316 177.316 38.536 176.536L51.536 181.896L44.006 200.086C44.006 200.086 56.466 206.826 58.676 207.876C59.1215 208.075 59.4976 208.402 59.756 208.816C60.2764 209.804 60.4423 210.941 60.226 212.036Z" fill="#DD890E"/>
<path d="M59.7659 208.816C57.7659 209.366 55.7659 208.816 52.6259 208.096C48.9159 207.256 41.2659 206.666 39.2259 204.986C37.1859 203.306 41.2259 200.926 44.0159 200.086C44.0159 200.086 56.4759 206.826 58.6859 207.876C59.1315 208.075 59.5076 208.402 59.7659 208.816Z" fill="#EDA024"/>
<path d="M66.2359 118.486C65.1159 130.946 63.0659 151.126 62.5159 154.396C61.7159 159.136 53.5159 181.536 51.9759 183.906C50.4359 186.276 44.5959 187.066 41.1659 185.746C37.7359 184.426 36.4259 181.276 36.4259 178.106C36.4259 174.936 43.5359 153.346 43.5359 151.766C43.5359 150.186 40.3859 123.306 41.1659 116.966C41.4058 115.296 41.7634 113.646 42.2359 112.026C43.4992 107.713 44.9914 103.471 46.7059 99.3163C46.7059 99.3163 66.7059 107.476 66.9859 108.526C67.0659 108.886 66.7659 112.966 66.2359 118.486Z" fill="#25596E"/>
<g style="mix-blend-mode:multiply" opacity="0.5">
<path d="M66.236 118.486C62.456 114.756 57.126 109.996 54.056 109.376C50.796 108.726 45.716 110.556 42.236 112.056C43.4993 107.743 44.9914 103.501 46.706 99.3463C46.706 99.3463 66.706 107.506 66.986 108.556C67.066 108.886 66.766 112.966 66.236 118.486Z" fill="#2F6C7F"/>
</g>
<g style="mix-blend-mode:multiply" opacity="0.5">
<path d="M59.1859 155.576C58.4559 155.576 54.1859 156.896 49.3559 156.166C44.5259 155.436 48.6259 173.166 51.7059 172.586C54.7859 172.006 62.2659 155.726 59.1859 155.576Z" fill="#2F6C7F"/>
</g>
<path d="M97.9959 80.3763C98.3559 66.2363 96.3359 59.8063 96.3359 59.8063C81.1859 59.3863 84.9059 85.1563 84.0759 97.5563C83.8159 101.456 83.7959 104.426 83.4359 106.656C85.2559 111.656 95.0359 106.436 97.7159 98.3163C97.7059 96.1463 97.9359 82.7163 97.9959 80.3763Z" fill="#579E7B"/>
<path d="M93.9759 77.9663C91.7559 82.4863 89.3959 88.1963 87.4259 93.2963C84.6959 100.366 82.6659 106.296 82.6659 106.296C82.6659 106.296 74.8859 111.416 59.8459 108.586C44.8059 105.756 44.4559 98.3363 44.4559 98.3363C49.5859 73.9263 60.9059 51.6463 64.6159 50.2263L65.1359 50.0263C69.2759 48.5863 79.5159 46.2263 84.5959 48.6363C99.4659 55.6663 99.2859 67.1563 93.9759 77.9663Z" fill="#79BC9C"/>
<path d="M87.4259 93.2763C84.6959 100.346 82.6659 106.276 82.6659 106.276C82.6659 106.276 74.8859 111.396 59.8459 108.566C44.8059 105.736 44.4559 98.3163 44.4559 98.3163C49.5859 73.9063 60.9059 51.6263 64.6159 50.2063L65.1359 50.0063C66.362 50.7166 67.4998 51.5691 68.5259 52.5463C68.8759 52.8863 68.6459 62.8163 62.0859 66.3963C55.5259 69.9763 55.4059 73.2163 60.5959 83.5963C65.7859 93.9763 79.7659 89.2663 81.7659 90.3763C83.7659 91.4863 79.5359 94.5963 70.7659 94.9563C63.0859 95.2863 76.7659 99.9663 87.4259 93.2763Z" fill="#579E7B"/>
<path d="M49.7659 96.1863L50.5159 96.0463C52.4584 96.9837 54.327 98.0667 56.1059 99.2863C57.1059 100.286 56.7859 103.756 56.7859 104.656C56.7859 105.556 56.1659 106.586 54.2459 105.896C52.3259 105.206 51.0759 104.446 50.7959 103.416C50.5159 102.386 53.2759 102.416 53.2759 102.416C53.2759 102.416 47.4859 101.076 49.7659 96.1863Z" fill="#D17E46"/>
<path d="M27.4359 79.2863C27.4359 79.2863 23.7659 78.5463 24.3159 82.4063L50.8459 105.566L54.1759 102.376L27.4359 79.2863Z" fill="#533E3D"/>
<path d="M56.0259 103.766C56.0259 106.036 53.7559 108.376 53.7559 108.376C53.7559 108.376 51.5959 110.146 50.6859 109.686C49.7759 109.226 49.3959 108.306 49.1159 108.306C48.6481 108.374 48.1706 108.312 47.7359 108.126C47.2898 107.779 46.8899 107.375 46.5459 106.926C45.9952 106.918 45.4567 106.762 44.9859 106.476C44.5076 106.041 44.1319 105.505 43.8859 104.906C43.8859 104.906 41.8859 104.996 41.7659 103.806C41.9255 101.397 42.2059 98.9974 42.6059 96.6163C42.7159 95.9163 42.7759 95.4563 42.7759 95.4563L41.9559 90.0263L49.9559 89.4963L50.4359 95.1763L50.5059 96.0463C50.5059 96.0463 56.0259 101.486 56.0259 103.766Z" fill="#D17E46"/>
<path d="M50.4459 95.1763C48.1203 96.66 45.3071 97.1767 42.6059 96.6163C42.7159 95.9163 42.7759 95.4563 42.7759 95.4563L41.9559 90.0263L49.9559 89.4963L50.4459 95.1763Z" fill="#C66F34"/>
<path d="M41.0859 87.4663L42.0859 94.4663C42.0859 94.4663 47.8059 96.8063 50.8359 93.4663L50.1459 86.6463L41.0859 87.4663Z" fill="#ACE8CA"/>
<path d="M64.6959 64.0263C60.0522 65.592 55.2856 66.7661 50.4459 67.5363L52.2759 83.3963C52.4192 84.5843 52.2432 85.789 51.7659 86.8863C51.3216 87.9627 50.598 88.901 49.6698 89.6042C48.7416 90.3074 47.6424 90.75 46.4859 90.8863H46.1159C44.4614 91.0061 42.8224 90.4985 41.5253 89.4644C40.2282 88.4304 39.3679 86.9459 39.1159 85.3063C38.1159 79.0363 36.5659 67.1063 37.1159 60.8163L37.9759 60.3763C41.9759 58.3763 58.9759 49.9663 65.1759 49.3763C72.2559 48.6763 72.2559 54.1563 72.2559 54.1563C73.5359 58.7163 70.3659 61.9063 64.6959 64.0263Z" fill="#79BC9C"/>
<path d="M51.7659 86.8863C51.3216 87.9627 50.598 88.901 49.6698 89.6042C48.7416 90.3074 47.6424 90.75 46.4859 90.8863H46.1159C44.4614 91.0061 42.8224 90.4984 41.5253 89.4644C40.2282 88.4304 39.3679 86.9459 39.1159 85.3063C38.1159 79.0363 36.5659 67.1063 37.1159 60.8163L37.9759 60.3763C38.6659 66.0763 39.6459 80.9363 41.4959 84.8263C43.7659 89.5663 43.3559 85.1363 44.2859 84.8263C45.2159 84.5163 44.4859 86.2663 46.0259 88.2163C47.2359 89.6763 49.7659 88.7363 51.7659 86.8863Z" fill="#579E7B"/>
<path d="M166.936 185.106L163.576 177.376C163.413 176.991 163.171 176.644 162.867 176.358C162.562 176.072 162.201 175.853 161.806 175.714C161.412 175.576 160.993 175.521 160.576 175.555C160.159 175.588 159.754 175.707 159.386 175.906L147.386 182.246C147.125 182.386 146.828 182.444 146.533 182.411C146.239 182.379 145.961 182.259 145.736 182.066L55.7659 103.746C55.3314 103.373 54.7734 103.174 54.2005 103.189C53.6276 103.204 53.0807 103.431 52.6659 103.826C52.436 104.047 52.2546 104.314 52.1331 104.608C52.0116 104.903 51.9528 105.22 51.9603 105.539C51.9678 105.858 52.0415 106.171 52.1768 106.46C52.312 106.749 52.5059 107.006 52.7459 107.216L140.116 183.876C140.296 184.032 140.436 184.23 140.522 184.452C140.609 184.674 140.639 184.914 140.612 185.15C140.584 185.387 140.499 185.614 140.364 185.81C140.229 186.006 140.047 186.166 139.836 186.276L128.766 192.166C128.095 192.518 127.582 193.11 127.33 193.824C127.078 194.538 127.105 195.321 127.406 196.016L131.116 204.856C131.182 205.01 131.279 205.149 131.402 205.263C131.524 205.377 131.67 205.463 131.828 205.517C131.987 205.571 132.155 205.591 132.322 205.575C132.489 205.559 132.65 205.509 132.796 205.426L133.676 204.936C133.919 204.804 134.108 204.59 134.207 204.331C134.306 204.073 134.309 203.787 134.216 203.526L131.296 195.056L134.396 193.606L137.576 201.246C137.639 201.401 137.735 201.54 137.857 201.655C137.978 201.77 138.122 201.858 138.28 201.913C138.438 201.967 138.606 201.988 138.772 201.973C138.939 201.958 139.1 201.908 139.246 201.826L140.336 201.216C140.586 201.08 140.778 200.859 140.877 200.592C140.976 200.326 140.976 200.032 140.876 199.766L137.976 191.946L141.286 190.166L144.726 197.326C144.797 197.472 144.896 197.602 145.019 197.708C145.142 197.813 145.284 197.893 145.439 197.942C145.593 197.99 145.756 198.007 145.917 197.991C146.078 197.974 146.234 197.925 146.376 197.846L147.306 197.326C147.559 197.181 147.75 196.948 147.844 196.672C147.938 196.396 147.928 196.096 147.816 195.826L144.586 188.156L148.726 185.886L152.076 193.196C152.145 193.344 152.243 193.475 152.365 193.583C152.487 193.691 152.629 193.773 152.784 193.824C152.939 193.874 153.102 193.893 153.264 193.878C153.426 193.863 153.583 193.814 153.726 193.736L154.726 193.186C154.984 193.044 155.18 192.81 155.274 192.53C155.369 192.251 155.355 191.946 155.236 191.676L151.976 184.436L155.976 182.516L159.496 189.136C159.571 189.275 159.673 189.397 159.796 189.497C159.919 189.596 160.06 189.67 160.211 189.714C160.363 189.759 160.521 189.773 160.678 189.756C160.835 189.74 160.987 189.692 161.126 189.616L161.356 189.476C161.597 189.318 161.772 189.077 161.847 188.799C161.923 188.521 161.894 188.225 161.766 187.966L158.466 181.396L161.706 179.596L164.706 186.136C164.801 186.34 164.952 186.512 165.142 186.632C165.331 186.753 165.551 186.817 165.776 186.816C165.979 186.821 166.18 186.769 166.356 186.666C166.637 186.534 166.856 186.296 166.964 186.005C167.072 185.713 167.062 185.391 166.936 185.106Z" fill="#533E3D"/>
<path d="M65.416 28.3163C65.416 28.3163 79.586 40.9663 98.626 42.0263C117.666 43.0863 128.336 37.1463 128.336 37.1463C128.336 37.1463 115.876 28.4363 96.336 26.7563C76.796 25.0763 65.416 28.3163 65.416 28.3163Z" fill="#B76800"/>
<path d="M92.7659 42.9663L89.6459 52.2063L89.0759 53.9263C89.0759 53.9263 86.4259 56.7763 82.7159 54.0963C79.0059 51.4163 80.0559 48.7963 80.0559 48.7963L85.3359 39.1263L86.2459 37.4763C89.9159 36.9663 92.7659 42.9663 92.7659 42.9663Z" fill="#D17E46"/>
<path d="M92.7659 42.9663L89.6459 52.2063C85.3359 49.6663 84.9459 43.6563 85.3359 39.1263L86.2459 37.4763C89.9159 36.9663 92.7659 42.9663 92.7659 42.9663Z" fill="#C66F34"/>
<path d="M104.646 37.6263C104.593 37.7338 104.533 37.8374 104.466 37.9363C100.636 44.2163 95.6259 53.1763 90.6259 50.3863C85.6259 47.5963 84.3559 40.2663 87.7659 34.2163C90.3659 29.5663 93.6859 26.6063 97.1159 26.2163C98.1604 26.1152 99.2142 26.2555 100.196 26.6263C102.346 27.4663 108.106 31.5263 104.646 37.6263Z" fill="#D17E46"/>
<path d="M100.016 39.3163C99.6615 41.0044 99.2209 42.6732 98.696 44.3163C98.246 45.3963 95.606 43.6563 95.606 43.6563C96.4007 43.8538 97.217 43.9512 98.036 43.9463C98.616 43.8563 100.016 39.3163 100.016 39.3163Z" fill="#2B2625"/>
<path d="M94.1559 34.6963C94.1559 34.6963 97.9159 34.6963 98.4059 37.0463L94.1559 34.6963Z" fill="#2B2625"/>
<path d="M96.3459 37.3263C95.3459 36.9663 94.1159 39.4263 95.0659 39.9263C96.0159 40.4263 97.6259 37.7763 96.3459 37.3263Z" fill="#2B2625"/>
<path d="M96.496 37.9663C96.206 37.7163 95.846 38.3263 96.136 38.5463C96.426 38.7663 96.706 38.1163 96.496 37.9663Z" fill="white"/>
<path d="M101.136 38.6563C101.831 38.9885 102.546 39.279 103.276 39.5263C103.22 39.3091 103.113 39.108 102.965 38.9392C102.818 38.7704 102.632 38.6384 102.424 38.5539C102.216 38.4694 101.992 38.4347 101.768 38.4524C101.544 38.4702 101.328 38.54 101.136 38.6563Z" fill="#2B2625"/>
<path d="M101.476 39.8963C100.586 39.5763 99.4759 41.7563 100.346 42.1863C101.216 42.6163 102.606 40.2963 101.476 39.8963Z" fill="#2B2625"/>
<path d="M101.606 40.4163C101.346 40.1963 101.036 40.7363 101.286 40.9263C101.536 41.1163 101.766 40.5863 101.606 40.4163Z" fill="white"/>
<path d="M90.8759 43.8463C90.8759 43.8463 93.3659 46.5363 96.4659 46.7563C96.4659 46.7563 91.6959 50.1363 90.8759 43.8463Z" fill="white"/>
<path d="M104.646 37.6263C100.976 37.9963 98.7859 33.0563 97.5559 31.5563C96.3259 30.0563 94.0659 30.4563 94.1059 30.3263C94.6317 28.6769 95.686 27.2466 97.1059 26.2563C98.1505 26.1552 99.2042 26.2955 100.186 26.6663C102.346 27.4663 108.106 31.5263 104.646 37.6263Z" fill="#C66F34"/>
<path d="M87.536 37.2363C87.536 37.2363 89.226 34.6463 90.226 34.3463C91.226 34.0463 93.106 34.4463 94.606 30.6663C95.1626 30.3469 95.8032 30.2045 96.4427 30.258C97.0823 30.3116 97.6903 30.5587 98.186 30.9663C100.186 32.3563 106.186 40.4163 112.506 32.0563C112.506 32.0563 108.736 31.5663 103.856 26.6863C97.286 20.1163 93.856 25.0963 93.856 25.0963C93.856 25.0963 88.286 22.0963 86.496 32.3563L87.536 37.2363Z" fill="#2B2625"/>
<path d="M84.7059 24.9663C84.7059 24.9663 88.5159 19.9663 91.4559 15.4863C94.3959 11.0063 99.6159 17.6663 101.906 18.1063C104.196 18.5463 108.656 16.2563 110.076 17.5563C111.496 18.8563 111.486 28.5563 111.486 28.5563C111.486 28.5563 92.9759 21.9663 84.7059 24.9663Z" fill="#FFB03E"/>
<path d="M65.416 28.3163C65.416 28.3163 86.496 26.6263 100.416 28.4163C114.336 30.2063 128.416 37.1463 128.416 37.1463C119.148 29.2888 107.551 24.6994 95.416 24.0863C75.156 23.1963 65.416 28.3163 65.416 28.3163Z" fill="#EDA024"/>
<path d="M88.4159 34.9663C88.4159 34.9663 88.8859 29.8463 85.0459 30.3163C81.2059 30.7863 81.2059 39.1463 86.6759 38.8063L88.4159 34.9663Z" fill="#D17E46"/>
<path d="M86.3759 32.3263C86.1631 32.0986 85.9039 31.9192 85.6158 31.8001C85.3277 31.6811 85.0175 31.6252 84.7059 31.6363C83.7059 31.7363 83.1359 33.8863 83.5759 35.2863C84.0159 36.6863 85.9459 37.2863 85.9459 37.2863C85.9459 37.2863 85.1559 35.9663 85.7659 35.3963C86.3759 34.8263 87.1159 34.3163 87.1159 34.3163C87.0167 33.6071 86.7642 32.928 86.3759 32.3263Z" fill="#C66F34"/>
<path d="M84.7059 31.6363C86.4859 31.5063 87.4459 32.5463 87.4059 34.6363C87.4059 34.6363 86.2659 34.9563 85.9859 35.5463C85.8344 36.1435 85.8344 36.7691 85.9859 37.3663C85.9859 37.3663 84.6559 35.8163 85.1659 35.1763C85.6105 34.7232 86.155 34.3807 86.7559 34.1763C86.817 33.8376 86.7923 33.489 86.684 33.1624C86.5757 32.8357 86.3873 32.5414 86.1359 32.3063C85.7277 31.9592 85.2339 31.7279 84.7059 31.6363Z" fill="#2B2625"/>
<path d="M84.8759 101.106C83.5159 105.106 81.7259 113.186 83.5259 116.026C86.1459 120.156 91.9259 120.576 94.2759 119.606C95.9228 118.838 97.2894 117.576 98.1855 115.995C99.0817 114.415 99.4628 112.594 99.2759 110.786C98.4117 104.678 97.9075 98.5239 97.7659 92.3563C97.7618 91.9835 97.6775 91.6159 97.5188 91.2786C97.3601 90.9412 97.1307 90.6419 96.8461 90.401C96.5616 90.1601 96.2286 89.9832 95.8696 89.8823C95.5107 89.7814 95.1343 89.7589 94.7659 89.8163C91.5959 90.2863 87.0859 94.5663 84.8759 101.106Z" fill="#79BC9C"/>
<path d="M86.1459 117.586L84.9459 126.776C84.9459 126.776 86.2359 129.776 89.0859 130.356C90.0053 130.467 90.9378 130.367 91.8128 130.064C92.6878 129.761 93.4822 129.262 94.1359 128.606L94.9659 118.226C93.6965 117.32 92.2017 116.78 90.6458 116.667C89.0899 116.554 87.533 116.872 86.1459 117.586Z" fill="#ACE8CA"/>
<path d="M86.2759 126.156C84.8536 127.384 83.6025 128.796 82.5559 130.356C81.7359 132.006 81.8759 135.936 87.1759 137.456C92.0959 138.856 93.8259 135.186 93.9659 132.356C94.0791 130.825 93.9268 129.286 93.5159 127.806C93.5159 127.806 91.4459 125.326 86.2759 126.156Z" fill="#C66F34"/>
<path d="M93.636 135.966C92.9189 136.2 92.289 136.645 91.8288 137.243C91.3685 137.841 91.0992 138.563 91.056 139.316C91.0461 139.386 91.0461 139.457 91.056 139.526C91.1342 140.243 91.4512 140.912 91.956 141.426L90.956 141.756C90.2276 141.995 89.436 141.952 88.7379 141.636C88.0398 141.319 87.4859 140.752 87.1859 140.046C86.8528 140.043 86.5239 139.972 86.2192 139.837C85.9146 139.702 85.6407 139.506 85.4141 139.262C85.1876 139.018 85.0133 138.73 84.9019 138.416C84.7904 138.102 84.7442 137.769 84.766 137.436C84.766 137.436 82.706 137.986 81.926 137.066C81.7044 136.713 81.5683 136.313 81.5283 135.898C81.4884 135.484 81.5458 135.065 81.696 134.676C81.696 134.676 79.696 134.166 79.316 132.876C79.2409 132.654 79.2203 132.418 79.2559 132.186C79.4259 131.026 80.6459 129.726 81.3259 128.886C81.7922 128.457 82.3596 128.153 82.9752 128.003C83.5907 127.853 84.2344 127.861 84.846 128.026C85.0804 128.122 85.2844 128.279 85.436 128.482C85.5875 128.684 85.6809 128.924 85.706 129.176V129.576C88.146 129.016 88.1459 131.576 88.1459 131.576C91.2259 131.026 90.8559 133.576 90.8559 133.576C93.4459 132.966 95.236 135.456 93.636 135.966Z" fill="#D17E46"/>
<path d="M91.9759 141.426L90.9759 141.756C90.2476 141.995 89.456 141.952 88.7579 141.636C88.0598 141.319 87.5059 140.752 87.206 140.046C86.8711 140.046 86.54 139.976 86.233 139.843C85.926 139.709 85.6497 139.514 85.421 139.269C85.1924 139.025 85.0163 138.736 84.9036 138.421C84.7909 138.105 84.7441 137.77 84.766 137.436C84.766 137.436 82.706 137.986 81.926 137.066C81.7044 136.713 81.5683 136.313 81.5283 135.898C81.4884 135.484 81.5458 135.065 81.696 134.676C81.696 134.676 79.696 134.166 79.316 132.876C79.2409 132.654 79.2203 132.418 79.2559 132.186C79.4993 132.628 79.8664 132.99 80.3124 133.226C80.7583 133.462 81.2635 133.563 81.766 133.516C82.3192 132.775 82.9348 132.083 83.6059 131.446C83.6059 131.446 82.1859 133.996 82.9059 135.126C83.1197 135.442 83.4479 135.662 83.821 135.741C84.1942 135.819 84.5832 135.749 84.906 135.546C85.3569 134.8 85.8722 134.094 86.446 133.436C86.386 133.626 85.5859 135.786 86.3659 136.826C87.1459 137.866 87.456 137.716 87.456 137.716C87.4028 137.274 87.4559 136.826 87.6106 136.409C87.7654 135.991 88.0175 135.617 88.346 135.316C88.346 135.316 87.736 139.616 89.816 139.756C90.2713 139.787 90.7274 139.708 91.1459 139.526C91.2048 140.234 91.4967 140.902 91.9759 141.426Z" fill="#C66F34"/>
<path d="M95.1859 134.806C95.1333 135.021 95.049 135.226 94.9359 135.416C94.0759 136.946 91.9359 136.416 89.3159 135.866C86.4259 135.286 86.2459 134.216 87.1859 133.616C88.1985 133.202 89.2819 132.988 90.3759 132.986C89.7889 132.648 89.2563 132.223 88.7959 131.726C88.4921 131.442 88.2739 131.078 88.1659 130.676C88.0125 129.732 88.1816 128.763 88.6459 127.926C90.2759 126.456 92.6459 127.326 93.3959 128.026C94.1459 128.726 95.8359 132.556 95.1859 134.806Z" fill="#D17E46"/>
<path d="M88.8459 131.686C88.5421 131.402 88.3239 131.038 88.2159 130.636C88.9347 131.372 89.8405 131.898 90.8359 132.156C92.8359 132.616 92.8359 133.156 92.8359 133.156C92.8359 133.156 92.0559 133.036 90.4959 132.936H90.4159C89.8332 132.6 89.304 132.179 88.8459 131.686Z" fill="#C66F34"/>
<path d="M94.9359 135.416C94.0759 136.946 91.9359 136.416 89.3159 135.866C86.4259 135.286 86.2459 134.216 87.1859 133.616C87.9259 133.816 89.7159 133.786 91.1059 134.056C92.4959 134.326 94.3459 134.716 94.9359 135.416Z" fill="#C66F34"/>
</svg>
